<?xml version="1.0" encoding="UTF-8" standalone="no"?>
<!DOCTYPE svg PUBLIC "-//W3C//DTD SVG 1.1//EN" "http://www.w3.org/Graphics/SVG/1.1/DTD/svg11.dtd">
<svg width="100%" height="100%" viewBox="0 0 512 512" version="1.1" xmlns="http://www.w3.org/2000/svg" xmlns:xlink="http://www.w3.org/1999/xlink" xml:space="preserve" xmlns:serif="http://www.serif.com/" style="fill-rule:evenodd;clip-rule:evenodd;stroke-linejoin:round;stroke-miterlimit:2;">
    <path d="M256,512C115.563,512 0,396.437 0,256C-0,115.563 115.563,0 256,0C396.437,0 512,115.563 512,256C512,396.437 396.437,512 256,512ZM256,48C141.895,48 48,141.895 48,256C48,370.105 141.895,464 256,464C370.105,464 464,370.105 464,256C464,141.895 370.105,48 256,48Z" style="fill:rgb(186,0,0);"/>
    <g transform="matrix(1.66685,0,0,1.66685,-170.647,-170.647)">
        <path d="M175,175C165.6,184.4 165.6,199.6 175,208.9L222,255.9L175,302.9C165.6,312.3 165.6,327.5 175,336.8C184.4,346.1 199.6,346.2 208.9,336.8L255.9,289.8L302.9,336.8C312.3,346.2 327.5,346.2 336.8,336.8C346.1,327.4 346.2,312.2 336.8,302.9L289.8,255.9L336.8,208.9C346.2,199.5 346.2,184.3 336.8,175C327.4,165.7 312.2,165.6 302.9,175L255.9,222L208.9,175C199.5,165.6 184.3,165.6 175,175Z" style="fill:rgb(186,0,0);"/>
    </g>
</svg>
